<svg width="856" height="139" viewBox="0 0 856 139" fill="none" xmlns="http://www.w3.org/2000/svg">
<path fill-rule="evenodd" clip-rule="evenodd" d="M50.4736 115.47L28.6867 132.9L27.8701 131.879L49.657 114.449L50.4736 115.47Z" fill="white"/>
<path fill-rule="evenodd" clip-rule="evenodd" d="M50.4732 112.42L24.329 85.8401L25.261 84.9235L51.4052 111.503L50.4732 112.42Z" fill="white"/>
<path fill-rule="evenodd" clip-rule="evenodd" d="M5.59237 76.254L24.329 85.8402L23.7336 87.0039L4.99697 77.4177L5.59237 76.254Z" fill="white"/>
<path fill-rule="evenodd" clip-rule="evenodd" d="M96.6615 71.025L25.2007 85.8401L24.9353 84.5601L96.3961 69.745L96.6615 71.025Z" fill="white"/>
<path fill-rule="evenodd" clip-rule="evenodd" d="M96.6613 69.7179L146.335 43.5737L146.944 44.7305L97.2701 70.8747L96.6613 69.7179Z" fill="white"/>
<path fill-rule="evenodd" clip-rule="evenodd" d="M118.448 84.5329L146.335 43.5736L147.416 44.3093L119.529 85.2686L118.448 84.5329Z" fill="white"/>
<path fill-rule="evenodd" clip-rule="evenodd" d="M146 71V44H148V71H146Z" fill="white"/>
<path fill-rule="evenodd" clip-rule="evenodd" d="M146.335 71.025L118.448 85.8401L117.835 84.6857L145.722 69.8706L146.335 71.025Z" fill="white"/>
<path fill-rule="evenodd" clip-rule="evenodd" d="M54.8306 88.0188L118.448 85.8402L118.493 87.1466L54.8754 89.3253L54.8306 88.0188Z" fill="white"/>
<path fill-rule="evenodd" clip-rule="evenodd" d="M57.4452 71.0251L118.448 84.5329L118.166 85.8092L57.1626 72.3014L57.4452 71.0251Z" fill="white"/>
<path fill-rule="evenodd" clip-rule="evenodd" d="M57.4453 71.025L29.9939 61.8745L30.4072 60.6344L57.8586 69.7849L57.4453 71.025Z" fill="white"/>
<path fill-rule="evenodd" clip-rule="evenodd" d="M5.59245 76.6896L29.9937 61.8746L30.6721 62.9919L6.27087 77.807L5.59245 76.6896Z" fill="white"/>
<path fill-rule="evenodd" clip-rule="evenodd" d="M56.5737 42.2665L29.9938 61.8747L29.2178 60.8228L55.7977 41.2146L56.5737 42.2665Z" fill="white"/>
<path fill-rule="evenodd" clip-rule="evenodd" d="M56.5739 42.2665L120.627 50.9812L120.451 52.2765L56.3976 43.5618L56.5739 42.2665Z" fill="white"/>
<path fill-rule="evenodd" clip-rule="evenodd" d="M115.398 18.7367L120.627 50.9812L119.337 51.1904L114.108 18.9459L115.398 18.7367Z" fill="white"/>
<path fill-rule="evenodd" clip-rule="evenodd" d="M115.398 18.7366L131.085 29.1943L130.36 30.282L114.673 19.8243L115.398 18.7366Z" fill="white"/>
<path fill-rule="evenodd" clip-rule="evenodd" d="M115.398 18.7366L89.2538 20.0439L89.1885 18.7383L115.333 17.4311L115.398 18.7366Z" fill="white"/>
<path fill-rule="evenodd" clip-rule="evenodd" d="M77.0531 4.35737L89.2538 20.0439L88.2219 20.8464L76.0213 5.15992L77.0531 4.35737Z" fill="white"/>
<path fill-rule="evenodd" clip-rule="evenodd" d="M77.0534 4.35733L49.1662 12.6363L48.7942 11.3832L76.6813 3.10418L77.0534 4.35733Z" fill="white"/>
<path fill-rule="evenodd" clip-rule="evenodd" d="M28 12L49 12V14L28 14V12Z" fill="white"/>
<path fill-rule="evenodd" clip-rule="evenodd" d="M28.2509 12.6363L22.5863 26.5799L21.3752 26.0879L27.0398 12.1443L28.2509 12.6363Z" fill="white"/>
<path fill-rule="evenodd" clip-rule="evenodd" d="M6.89972 39.652L22.5862 26.5799L23.4231 27.5841L7.73658 40.6562L6.89972 39.652Z" fill="white"/>
<path fill-rule="evenodd" clip-rule="evenodd" d="M6.89972 39.6521L5.59251 76.2539L4.28613 76.2073L5.59334 39.6054L6.89972 39.6521Z" fill="white"/>
<path fill-rule="evenodd" clip-rule="evenodd" d="M49.1661 12.6363L5.5924 76.2538L4.51392 75.5151L48.0876 11.8976L49.1661 12.6363Z" fill="white"/>
<path fill-rule="evenodd" clip-rule="evenodd" d="M49.1663 12.6364L94.0471 38.7806L93.3892 39.9102L48.5083 13.766L49.1663 12.6364Z" fill="white"/>
<path fill-rule="evenodd" clip-rule="evenodd" d="M56.5737 71.0251L94.047 38.7806L94.8997 39.7715L57.4263 72.016L56.5737 71.0251Z" fill="white"/>
<path fill-rule="evenodd" clip-rule="evenodd" d="M96.6616 70.1536L56.5738 42.2665L57.3203 41.1934L97.4081 69.0805L96.6616 70.1536Z" fill="white"/>
<path fill-rule="evenodd" clip-rule="evenodd" d="M54.8308 88.0188L40.8872 101.091L39.9932 100.137L53.9367 87.0651L54.8308 88.0188Z" fill="white"/>
<path fill-rule="evenodd" clip-rule="evenodd" d="M146.335 43.5737L131.085 29.1944L131.981 28.2433L147.232 42.6226L146.335 43.5737Z" fill="white"/>
<path d="M33 62C33 63.6569 31.6569 65 30 65C28.3431 65 27 63.6569 27 62C27 60.3431 28.3431 59 30 59C31.6569 59 33 60.3431 33 62Z" fill="white"/>
<path d="M99 69.5C99 70.8807 97.8807 72 96.5 72C95.1193 72 94 70.8807 94 69.5C94 68.1193 95.1193 67 96.5 67C97.8807 67 99 68.1193 99 69.5Z" fill="white"/>
<path d="M60 71.5C60 72.8807 58.8807 74 57.5 74C56.1193 74 55 72.8807 55 71.5C55 70.1193 56.1193 69 57.5 69C58.8807 69 60 70.1193 60 71.5Z" fill="white"/>
<path d="M134 28.5C134 29.8807 132.881 31 131.5 31C130.119 31 129 29.8807 129 28.5C129 27.1193 130.119 26 131.5 26C132.881 26 134 27.1193 134 28.5Z" fill="white"/>
<path d="M97 38.5C97 39.8807 95.8807 41 94.5 41C93.1193 41 92 39.8807 92 38.5C92 37.1193 93.1193 36 94.5 36C95.8807 36 97 37.1193 97 38.5Z" fill="white"/>
<path d="M52 12.5C52 13.8807 50.8807 15 49.5 15C48.1193 15 47 13.8807 47 12.5C47 11.1193 48.1193 10 49.5 10C50.8807 10 52 11.1193 52 12.5Z" fill="white"/>
<path d="M123 51C123 52.6569 121.881 54 120.5 54C119.119 54 118 52.6569 118 51C118 49.3431 119.119 48 120.5 48C121.881 48 123 49.3431 123 51Z" fill="white"/>
<path d="M118 19C118 20.6569 116.881 22 115.5 22C114.119 22 113 20.6569 113 19C113 17.3431 114.119 16 115.5 16C116.881 16 118 17.3431 118 19Z" fill="white"/>
<path d="M25 26.5C25 27.8807 23.8807 29 22.5 29C21.1193 29 20 27.8807 20 26.5C20 25.1193 21.1193 24 22.5 24C23.8807 24 25 25.1193 25 26.5Z" fill="white"/>
<path d="M27 86.5C27 87.8807 25.8807 89 24.5 89C23.1193 89 22 87.8807 22 86.5C22 85.1193 23.1193 84 24.5 84C25.8807 84 27 85.1193 27 86.5Z" fill="white"/>
<path d="M123 84.5C123 86.9853 120.985 89 118.5 89C116.015 89 114 86.9853 114 84.5C114 82.0147 116.015 80 118.5 80C120.985 80 123 82.0147 123 84.5Z" fill="white"/>
<path d="M82 4.5C82 6.98528 79.9853 9 77.5 9C75.0147 9 73 6.98528 73 4.5C73 2.01472 75.0147 0 77.5 0C79.9853 0 82 2.01472 82 4.5Z" fill="white"/>
<path d="M150 43.5C150 45.9853 148.209 48 146 48C143.791 48 142 45.9853 142 43.5C142 41.0147 143.791 39 146 39C148.209 39 150 41.0147 150 43.5Z" fill="white"/>
<path d="M11 40C11 42.2091 8.98528 44 6.5 44C4.01472 44 2 42.2091 2 40C2 37.7909 4.01472 36 6.5 36C8.98528 36 11 37.7909 11 40Z" fill="white"/>
<path d="M32 13C32 15.2091 30.433 17 28.5 17C26.567 17 25 15.2091 25 13C25 10.7909 26.567 9 28.5 9C30.433 9 32 10.7909 32 13Z" fill="white"/>
<path d="M152 71C152 74.3137 149.314 77 146 77C142.686 77 140 74.3137 140 71C140 67.6863 142.686 65 146 65C149.314 65 152 67.6863 152 71Z" fill="white"/>
<path d="M63 42C63 45.3137 60.0899 48 56.5 48C52.9101 48 50 45.3137 50 42C50 38.6863 52.9101 36 56.5 36C60.0899 36 63 38.6863 63 42Z" fill="white"/>
<path d="M11 76C11 79.3137 8.53757 82 5.5 82C2.46243 82 0 79.3137 0 76C0 72.6863 2.46243 70 5.5 70C8.53757 70 11 72.6863 11 76Z" fill="white"/>
<path d="M59 88.5C59 90.9853 57.2091 93 55 93C52.7909 93 51 90.9853 51 88.5C51 86.0147 52.7909 84 55 84C57.2091 84 59 86.0147 59 88.5Z" fill="white"/>
<path d="M93 20C93 22.2091 91.2091 24 89 24C86.7909 24 85 22.2091 85 20C85 17.7909 86.7909 16 89 16C91.2091 16 93 17.7909 93 20Z" fill="white"/>
<path d="M55 114C55 115.657 53.6569 117 52 117C50.3431 117 49 115.657 49 114C49 112.343 50.3431 111 52 111C53.6569 111 55 112.343 55 114Z" fill="white"/>
<path d="M31 134.5C31 136.985 28.9853 139 26.5 139C24.0147 139 22 136.985 22 134.5C22 132.015 24.0147 130 26.5 130C28.9853 130 31 132.015 31 134.5Z" fill="white"/>
<path d="M834.941 112V68.4239H822V60.8707H834.941V41H843.176V60.8707H856V68.4239H843.176V112H834.941Z" fill="white"/>
<path d="M759.729 114C754.953 114 750.677 112.748 746.902 110.243C743.204 107.661 740.277 104.335 738.12 100.265C736.04 96.1174 735 91.6957 735 87C735 82.2261 736.04 77.8043 738.12 73.7348C740.277 69.6652 743.204 66.3783 746.902 63.8739C750.677 61.2913 754.953 60 759.729 60C763.889 60 767.548 60.9391 770.707 62.8174C773.942 64.6174 776.677 67.0043 778.911 69.9783V61.1739H787V112.826H778.911V104.022C777.447 105.978 775.753 107.739 773.827 109.304C771.901 110.791 769.744 111.965 767.356 112.826C765.044 113.609 762.502 114 759.729 114ZM761 105.783C764.467 105.783 767.548 104.922 770.244 103.2C772.941 101.4 775.059 99.0913 776.6 96.2739C778.141 93.3783 778.911 90.287 778.911 87C778.911 83.6348 778.141 80.5435 776.6 77.7261C775.059 74.9087 772.941 72.6391 770.244 70.9174C767.548 69.1174 764.467 68.2174 761 68.2174C757.533 68.2174 754.452 69.1174 751.756 70.9174C749.059 72.6391 746.941 74.9087 745.4 77.7261C743.859 80.5435 743.089 83.6348 743.089 87C743.089 90.287 743.859 93.3783 745.4 96.2739C746.941 99.0913 749.059 101.4 751.756 103.2C754.452 104.922 757.533 105.783 761 105.783Z" fill="white"/>
<path d="M625 112V60.1778H633.248V68.4222C634.82 65.7526 636.862 63.5148 639.376 61.7089C641.89 59.903 644.953 59 648.567 59C652.495 59 655.833 59.8244 658.583 61.4733C661.332 63.0437 663.453 65.517 664.946 68.8933C666.517 66.0667 668.599 63.7111 671.191 61.8267C673.783 59.9422 676.886 59 680.5 59C684.506 59 687.884 59.8244 690.634 61.4733C693.383 63.1222 695.465 65.4778 696.879 68.54C698.293 71.6022 699 75.2926 699 79.6111V112H690.752V79.6111C690.752 77.177 690.398 75.057 689.691 73.2511C688.984 71.3667 687.845 69.9141 686.274 68.8933C684.781 67.7941 682.778 67.2444 680.264 67.2444C678.143 67.2444 676.062 67.8333 674.019 69.0111C672.055 70.1104 670.405 71.6022 669.07 73.4867C667.735 75.2926 667.067 77.3341 667.067 79.6111V112H658.818V79.6111C658.818 77.177 658.465 75.057 657.758 73.2511C657.051 71.3667 655.912 69.9141 654.341 68.8933C652.848 67.7941 650.845 67.2444 648.331 67.2444C645.425 67.2444 642.872 68.1081 640.672 69.8356C638.551 71.563 636.862 73.8007 635.605 76.5489C634.348 79.297 633.563 82.2807 633.248 85.5V112H625Z" fill="white"/>
<path d="M562 113C557.07 113 552.53 111.824 548.383 109.471C544.313 107.039 541.065 103.784 538.639 99.7059C536.213 95.6275 535 91.0784 535 86.0588C535 81.0392 536.213 76.4902 538.639 72.4118C541.065 68.3333 544.313 65.0784 548.383 62.6471C552.452 60.2157 556.991 59 562 59C567.009 59 571.548 60.2157 575.617 62.6471C579.687 65.0784 582.935 68.3333 585.361 72.4118C587.787 76.4902 589 81.0392 589 86.0588C589 91.0784 587.787 95.6275 585.361 99.7059C582.935 103.784 579.648 107.039 575.5 109.471C571.43 111.824 566.93 113 562 113ZM562 104.765C565.443 104.765 568.574 103.941 571.391 102.294C574.287 100.569 576.557 98.2941 578.2 95.4706C579.922 92.6471 580.783 89.5098 580.783 86.0588C580.783 82.5294 579.922 79.3529 578.2 76.5294C576.557 73.7059 574.326 71.4706 571.509 69.8235C568.691 68.098 565.522 67.2353 562 67.2353C558.557 67.2353 555.387 68.098 552.491 69.8235C549.674 71.4706 547.404 73.7059 545.683 76.5294C544.039 79.3529 543.217 82.5294 543.217 86.0588C543.217 89.5098 544.039 92.6471 545.683 95.4706C547.404 98.2941 549.674 100.569 552.491 102.294C555.387 103.941 558.557 104.765 562 104.765Z" fill="white"/>
<path d="M469 112V25H477.333V83.812L496.5 60.844H507.571L486.024 85.668L509 112H497.929L477.333 87.524V112H469Z" fill="white"/>
<path d="M408 112V61.0423H416.053V71.0022C417.05 68.1455 418.162 65.9451 419.389 64.4009C420.693 62.7795 422.15 61.66 423.761 61.0423C425.372 60.3474 427.097 60 428.938 60C429.782 60 430.625 60.0772 431.469 60.2316C432.389 60.386 433.233 60.6563 434 61.0423V71.5813C433.08 70.732 432.121 70.1143 431.124 69.7283C430.127 69.265 429.091 69.0334 428.018 69.0334C425.563 69.0334 423.416 69.9213 421.575 71.6971C419.811 73.3957 418.431 75.5961 417.434 78.2984C416.513 80.9235 416.053 83.6644 416.053 86.5212V112H408Z" fill="white"/>
<path d="M344 113C339.07 113 334.53 111.824 330.383 109.471C326.313 107.039 323.065 103.784 320.639 99.7059C318.213 95.6275 317 91.0784 317 86.0588C317 81.0392 318.213 76.4902 320.639 72.4118C323.065 68.3333 326.313 65.0784 330.383 62.6471C334.452 60.2157 338.991 59 344 59C349.009 59 353.548 60.2157 357.617 62.6471C361.687 65.0784 364.935 68.3333 367.361 72.4118C369.787 76.4902 371 81.0392 371 86.0588C371 91.0784 369.787 95.6275 367.361 99.7059C364.935 103.784 361.648 107.039 357.5 109.471C353.43 111.824 348.93 113 344 113ZM344 104.765C347.443 104.765 350.574 103.941 353.391 102.294C356.287 100.569 358.557 98.2941 360.2 95.4706C361.922 92.6471 362.783 89.5098 362.783 86.0588C362.783 82.5294 361.922 79.3529 360.2 76.5294C358.557 73.7059 356.326 71.4706 353.509 69.8235C350.691 68.098 347.522 67.2353 344 67.2353C340.557 67.2353 337.387 68.098 334.491 69.8235C331.674 71.4706 329.404 73.7059 327.683 76.5294C326.039 79.3529 325.217 82.5294 325.217 86.0588C325.217 89.5098 326.039 92.6471 327.683 95.4706C329.404 98.2941 331.674 100.569 334.491 102.294C337.387 103.941 340.557 104.765 344 104.765Z" fill="white"/>
<path d="M246 112V33H254.278V70.0603L281.357 33H292L262.437 72.5L292 112H281.357L254.278 74.9397V112H246Z" fill="white"/>
</svg>
